<?xml version="1.0" encoding="UTF-8"?>
<svg width="65px" height="38px" viewBox="0 0 65 38" version="1.1" xmlns="http://www.w3.org/2000/svg" xmlns:xlink="http://www.w3.org/1999/xlink">
    <title>long-arrow-left</title>
    <g id="Page-1" stroke="none" stroke-width="1" fill="none" fill-rule="evenodd">
        <g id="long-arrow-left" transform="translate(0.0001, 0.7502)" fill="#FFFFFF" fill-rule="nonzero">
            <path d="M19.796288,36.4918659 L20.8183078,35.4699872 C21.4955142,34.7926397 21.4955142,33.6945436 20.8183078,33.0171961 L8.68815639,20.9569107 L63.0154042,20.9569107 C63.9732037,20.9569107 64.7497751,20.1803394 64.7497751,19.2225398 L64.7497751,17.7772308 C64.7497751,16.8194313 63.9732037,16.0428599 63.0154042,16.0428599 L8.68815639,16.0428599 L20.8183078,3.9825745 C21.4955142,3.30536817 21.4955142,2.20727204 20.8183078,1.52978342 L19.796288,0.507904749 C19.1190817,-0.169301583 18.0208444,-0.169301583 17.3436381,0.507904749 L0.507904749,17.2734898 C-0.169301583,17.9508373 -0.169301583,19.0489334 0.507904749,19.726422 L17.3436381,36.492007 C18.0208444,37.1692134 19.1190817,37.1692134 19.796288,36.4918659 Z" id="Path"></path>
        </g>
    </g>
</svg>