<?xml version="1.0" encoding="UTF-8"?>
<svg width="717px" height="717px" viewBox="0 0 717 717" version="1.1" xmlns="http://www.w3.org/2000/svg" xmlns:xlink="http://www.w3.org/1999/xlink">
    <title>icon-2</title>
    <g id="Page-1" stroke="none" stroke-width="1" fill="none" fill-rule="evenodd">
        <g id="icon-2" transform="translate(25, 25.0001)">
            <path d="M233.333333,466.666667 C233.333333,485.076667 218.409333,500 200,500 C181.590667,500 166.666667,485.076667 166.666667,466.666667 C166.666667,448.256667 181.590667,433.333333 200,433.333333 C218.409333,433.333333 233.333333,448.256667 233.333333,466.666667 Z" id="Path" fill="#FFDA00" fill-rule="nonzero"></path>
            <path d="M366.666667,466.666667 C366.666667,485.076667 351.743333,500 333.333333,500 C314.923333,500 300,485.076667 300,466.666667 C300,448.256667 314.923333,433.333333 333.333333,433.333333 C351.743333,433.333333 366.666667,448.256667 366.666667,466.666667 Z" id="Path" fill="#FFDA00" fill-rule="nonzero"></path>
            <path d="M500,466.666667 C500,485.076667 485.076667,500 466.666667,500 C448.256667,500 433.333333,485.076667 433.333333,466.666667 C433.333333,448.256667 448.256667,433.333333 466.666667,433.333333 C485.076667,433.333333 500,448.256667 500,466.666667 Z" id="Path" fill="#FFDA00" fill-rule="nonzero"></path>
            <path d="M133.333333,266.666667 L133.333333,200 C133.333333,188.643 134.28,177.507 136.098667,166.666667 M533.333333,266.666667 L533.333333,200 C533.333333,89.543 443.79,0 333.333333,0 C273.6,0 219.980667,26.1876667 183.333333,67.7086667" id="Shape" stroke="#FFDA00" stroke-width="50" stroke-linecap="round"></path>
            <path d="M300,666.666667 L200,666.666667 C105.719,666.666667 58.5786667,666.666667 29.2893333,637.376667 C0,608.086667 0,560.946667 0,466.666667 C0,372.386667 0,325.246667 29.2893333,295.956667 C58.5786667,266.666667 105.719,266.666667 200,266.666667 L466.666667,266.666667 C560.946667,266.666667 608.086667,266.666667 637.376667,295.956667 C666.666667,325.246667 666.666667,372.386667 666.666667,466.666667 C666.666667,560.946667 666.666667,608.086667 637.376667,637.376667 C608.086667,666.666667 560.946667,666.666667 466.666667,666.666667 L433.333333,666.666667" id="Path" stroke="#FFDA00" stroke-width="50" stroke-linecap="round"></path>
        </g>
    </g>
</svg>