<?xml version="1.0" encoding="UTF-8"?>
<svg width="717px" height="717px" viewBox="0 0 717 717" version="1.1" xmlns="http://www.w3.org/2000/svg" xmlns:xlink="http://www.w3.org/1999/xlink">
    <title>icon-4</title>
    <g id="Page-1" stroke="none" stroke-width="1" fill="none" fill-rule="evenodd">
        <g id="icon-4" transform="translate(25, 25.0001)" stroke="#FFDA00" stroke-width="50">
            <polyline id="Path" stroke-linecap="round" stroke-linejoin="round" points="300 200 350 150 350 283.333333"></polyline>
            <path d="M566.666667,100 L598.286667,110.540333 C631.29,121.541 647.79,127.041333 657.226667,140.136 C666.666667,153.230667 666.666667,170.624333 666.663455,205.411333 L666.663455,207.829 C666.663455,236.520333 666.663455,250.866 659.756667,262.603 C652.85,274.34 640.31,281.306667 615.23,295.24 L516.666667,350" id="Path"></path>
            <path d="M99.998,100 L68.3773333,110.540333 C35.3753333,121.541 18.8743333,127.041333 9.43666667,140.136 C4.54747351e-13,153.230667 4.54747351e-13,170.624333 4.54747351e-13,205.411333 L4.54747351e-13,207.829 C4.54747351e-13,236.520333 4.54747351e-13,250.866 6.90766667,262.603 C13.8136667,274.34 26.3543333,281.306667 51.435,295.24 L149.998,350" id="Path"></path>
            <line x1="333.333333" y1="466.666667" x2="333.333333" y2="566.666667" id="Path" stroke-linecap="round"></line>
            <path d="M450,666.666667 L216.666667,666.666667 L227.974,610.13 C231.090333,594.55 244.770667,583.333333 260.66,583.333333 L406.006667,583.333333 C421.896667,583.333333 435.576667,594.55 438.693333,610.13 L450,666.666667 Z" id="Path" stroke-linecap="round" stroke-linejoin="round"></path>
            <line x1="533.333333" y1="666.666667" x2="133.333333" y2="666.666667" id="Path" stroke-linecap="round"></line>
            <path d="M500,15.199 C524.716667,19.9156667 539.37,25.0996667 552.03,40.6943333 C567.89,60.2243333 567.05,81.3326667 565.373333,123.549 C559.35,275.316667 525.336667,466.666667 333.34,466.666667 C141.340333,466.666667 107.327667,275.316667 101.302333,123.549 C99.6263333,81.3326667 98.7883333,60.2243333 114.645667,40.6943333 C130.502667,21.1646667 149.481667,17.9623333 187.439333,11.558 C224.908,5.23633333 273.886667,0 333.34,0 C357.28,0 379.523333,0.849333333 400,2.27633333" id="Path" stroke-linecap="round"></path>
        </g>
    </g>
</svg>