<?xml version="1.0" encoding="UTF-8"?>
<svg width="501px" height="717px" viewBox="0 0 501 717" version="1.1" xmlns="http://www.w3.org/2000/svg" xmlns:xlink="http://www.w3.org/1999/xlink">
    <title>icon-3</title>
    <g id="Page-1" stroke="none" stroke-width="1" fill="none" fill-rule="evenodd" stroke-linecap="round">
        <g id="icon-3" transform="translate(25, 25.0001)" stroke="#FFDA00" stroke-width="50">
            <path d="M1.0658141e-14,666.666667 L1.0658141e-14,400 M0,400 L82.3556667,383.53 C137.373333,372.526667 194.403333,377.76 246.496667,398.6 C302.95,421.18 365.08,425.396667 424.066667,410.65 L427.403333,409.816667 C446.94,404.933333 456.203333,382.563333 445.843333,365.296667 L393.823333,278.593333 C382.44,259.621 376.746667,250.135 375.396667,239.817 C374.836667,235.513 374.836667,231.153667 375.396667,226.849667 C376.746667,216.531667 382.44,207.045667 393.823333,188.073667 L436.44,117.044 C447.593333,98.4533333 430.703333,75.6573333 409.67,80.9153333 C360.043333,93.3223333 307.77,89.7743333 260.273333,70.7763333 L246.496667,65.2656667 C194.403333,44.428 137.373333,39.192 82.3556667,50.1956667 L0,66.6666667 M1.0658141e-14,400 L1.0658141e-14,300 M1.0658141e-14,66.6666667 L1.0658141e-14,0 M1.0658141e-14,66.6666667 L1.0658141e-14,166.666667" id="Shape"></path>
        </g>
    </g>
</svg>