<?xml version="1.0" encoding="UTF-8"?>
<svg width="676px" height="676px" viewBox="0 0 676 676" version="1.1" xmlns="http://www.w3.org/2000/svg" xmlns:xlink="http://www.w3.org/1999/xlink">
    <title>icon-1</title>
    <g id="Page-1" stroke="none" stroke-width="1" fill="none" fill-rule="evenodd">
        <g id="icon-1" transform="translate(25.3333, 17)" stroke="#FFDA00">
            <path d="M333.333333,230.742083 L164.075333,61.4844167 C126.541,23.94975 65.6853333,23.94975 28.151,61.4844167 C-9.38366667,99.01875 -9.38366667,159.874417 28.151,197.40875 L435.923333,605.183417 C473.46,642.71675 534.313333,642.71675 571.85,605.183417 C609.383333,567.64675 609.383333,506.793417 571.85,469.25675 L469.256667,366.66675" id="Path" stroke-width="50" stroke-linecap="round"></path>
            <line x1="100" y1="266.66675" x2="233.333333" y2="133.333417" id="Path" stroke-width="50" stroke-linecap="round"></line>
            <path d="M436.666667,10.23975 C442.033333,-3.41325 461.283333,-3.41325 466.646667,10.23975 L480.993333,46.7490833 C482.633333,50.9174167 485.92,54.2170833 490.073333,55.8610833 L526.446667,70.2600833 C540.05,75.64475 540.05,94.96675 526.446667,100.351417 L490.073333,114.75075 C485.92,116.39475 482.633333,119.694083 480.993333,123.862417 L466.65,160.37175 C461.283333,174.02475 442.033333,174.02475 436.666667,160.372083 L422.323333,123.862417 C420.683333,119.694083 417.396667,116.39475 413.243333,114.75075 L376.87,100.351417 C363.266667,94.96675 363.266667,75.64475 376.87,70.2600833 L413.243333,55.8610833 C417.396667,54.2170833 420.683333,50.9174167 422.323333,46.7490833 L436.666667,10.23975 Z" id="Path" stroke-width="33.3333333"></path>
            <path d="M565.573333,237.648417 C570.936667,223.99575 590.19,223.99575 595.553333,237.648417 L600.783333,250.960083 C602.423333,255.128417 605.71,258.428083 609.863333,260.07175 L623.123333,265.32175 C636.726667,270.70675 636.726667,290.030083 623.123333,295.413417 L609.863333,300.663417 C605.71,302.30675 602.423333,305.60675 600.783333,309.773417 L595.553333,323.08675 C590.19,336.740083 570.936667,336.740083 565.573333,323.08675 L560.343333,309.773417 C558.703333,305.60675 555.416667,302.30675 551.263333,300.663417 L538,295.413417 C524.4,290.030083 524.4,270.70675 538,265.32175 L551.263333,260.07175 C555.416667,258.428083 558.703333,255.128417 560.343333,250.960083 L565.573333,237.648417 Z" id="Path" stroke-width="33.3333333"></path>
            <path d="M71.1066667,443.573417 C76.4713333,429.920083 95.7223333,429.920083 101.087,443.573417 L106.317667,456.883417 C107.955667,461.053417 111.243,464.353417 115.396,465.99675 L128.658333,471.24675 C142.261,476.630083 142.261,495.953417 128.658333,501.33675 L115.396,506.58675 C111.243,508.230083 107.955667,511.530083 106.317667,515.700083 L101.087,529.010083 C95.7223333,542.663417 76.4713333,542.663417 71.1066667,529.010083 L65.876,515.700083 C64.238,511.530083 60.9506667,508.230083 56.7976667,506.58675 L43.5353333,501.33675 C29.9326667,495.953417 29.9326667,476.630083 43.5353333,471.24675 L56.7976667,465.99675 C60.9506667,464.353417 64.238,461.053417 65.876,456.883417 L71.1066667,443.573417 Z" id="Path" stroke-width="33.3333333"></path>
        </g>
    </g>
</svg>