<?xml version="1.0" encoding="UTF-8"?>
<svg width="651px" height="717px" viewBox="0 0 651 717" version="1.1" xmlns="http://www.w3.org/2000/svg" xmlns:xlink="http://www.w3.org/1999/xlink">
    <title>icon-5</title>
    <g id="Page-1" stroke="none" stroke-width="1" fill="none" fill-rule="evenodd" stroke-linecap="round">
        <g id="icon-5" transform="translate(25.3333, 25.0001)" stroke="#FFDA00" stroke-width="50">
            <g id="Group">
                <path d="M599.943333,266.666667 C599.54,194.165667 596.323333,154.902 570.71,129.289333 C541.42,100 494.28,100 400,100 L300,100 C205.719,100 158.578667,100 129.289333,129.289333 C100,158.578667 100,205.719 100,300 L100,466.666667 C100,560.946667 100,608.086667 129.289333,637.376667 C158.578667,666.666667 205.719,666.666667 300,666.666667 L400,666.666667 C494.28,666.666667 541.42,666.666667 570.71,637.376667 C600,608.086667 600,560.946667 600,466.666667 L600,433.333333" id="Path"></path>
                <path d="M0,266.666667 L0,466.666667 C0,521.896667 44.7716667,566.666667 100,566.666667 M500,100 C500,44.7716667 455.23,0 400,0 L266.666667,0 C140.958667,0 78.105,0 39.0523333,39.0523333 C17.2796667,60.825 7.64566667,89.9963333 3.383,133.333333" id="Shape"></path>
            </g>
        </g>
    </g>
</svg>