<?xml version="1.0" encoding="UTF-8"?>
<svg width="120px" height="119px" viewBox="0 0 120 119" version="1.1" xmlns="http://www.w3.org/2000/svg" xmlns:xlink="http://www.w3.org/1999/xlink">
    <title>Combined Shape</title>
    <g id="Page-1" stroke="none" stroke-width="1" fill="none" fill-rule="evenodd">
        <path d="M60,0 C93.137085,0 120,26.6390574 120,59.5 C120,92.3609426 93.137085,119 60,119 C26.862915,119 0,92.3609426 0,59.5 C0,26.6390574 26.862915,0 60,0 Z M60.4137931,32.0068966 C50.5715418,32.0068966 42.1498216,34.52458 33.9310345,39.7613616 L33.9310345,79.137931 C40.1204915,84.6768347 46.817281,86.9931034 54.9346017,86.9931034 C61.8343242,86.9931034 68.0237812,84.6768347 73.8073722,79.4400531 L74.8220373,85.4824934 L86.8965517,85.4824934 L86.8965517,39.7613616 C78.6777646,34.4238727 70.2560444,32.0068966 60.4137931,32.0068966 Z M60,44.3172414 C64.9885057,44.3172414 69.3661741,45.7110684 72.8275862,48.1004862 L72.8275862,70.0034822 C68.7553366,73.0898135 63.8686371,74.6827586 58.8801314,74.6827586 C54.2988506,74.6827586 50.4302135,73.5876088 47.1724138,70.8995138 L47.1724138,48.1004862 C50.6338259,45.8106275 55.0114943,44.3172414 60,44.3172414 Z" id="Combined-Shape" fill="#FFFFFF"></path>
    </g>
</svg>