<?xml version="1.0" encoding="UTF-8"?>
<svg width="290px" height="91px" viewBox="0 0 290 91" version="1.1" xmlns="http://www.w3.org/2000/svg" xmlns:xlink="http://www.w3.org/1999/xlink">
    <title>Group 11</title>
    <g id="r" stroke="none" stroke-width="1" fill="none" fill-rule="evenodd">
        <g id="Group-5" fill="#FFFFFF">
            <g id="Combined-Shape-2">
                <path d="M45.7645926,0 C71.0396791,0 91.5291851,20.3710439 91.5291851,45.5 C91.5291851,70.6289561 71.0396791,91 45.7645926,91 C20.489506,91 0,70.6289561 0,45.5 C0,20.3710439 20.489506,0 45.7645926,0 Z M46.0802104,24.4758621 C38.5731001,24.4758621 32.1494902,26.4011494 25.8806661,30.4057471 L25.8806661,60.5172414 C30.6016324,64.7528736 35.7095632,66.5241379 41.9009944,66.5241379 C47.1637109,66.5241379 51.8846772,64.7528736 56.2960719,60.7482759 L57.0700008,65.3689655 L66.2797548,65.3689655 L66.2797548,30.4057471 C60.0109307,26.3241379 53.5873208,24.4758621 46.0802104,24.4758621 Z M45.7645926,33.8896552 C49.5695415,33.8896552 52.9085782,34.9555229 55.5487468,36.7827247 L55.5487468,53.5320746 C52.4426661,55.8922103 48.7153693,57.1103448 44.9104204,57.1103448 C41.4160796,57.1103448 38.4653029,56.2728773 35.9804383,54.2172753 L35.9804383,36.7827247 C38.6206069,35.0316563 41.9596437,33.8896552 45.7645926,33.8896552 Z" id="Combined-Shape"></path>
            </g>
            <g id="adstxt" transform="translate(118.2909, 26.3968)" fill-rule="nonzero">
                <path d="M13.0573564,34.9158194 C10.6356913,34.9158194 8.43492134,34.3815613 6.4550465,33.3130452 C4.47517165,32.244529 2.90436186,30.7486065 1.74261712,28.8252774 C0.580872372,26.9019484 0,24.6745032 0,22.1429419 C0,19.5456258 0.589053673,17.2935226 1.76716102,15.3866323 C2.94526836,13.4797419 4.54062206,11.9920387 6.55322211,10.9235226 C8.56582216,9.85500645 10.8484051,9.32074839 13.4009711,9.32074839 C16.2153386,9.32074839 18.481559,9.88788387 20.1996322,11.0221548 C21.9177054,12.1564258 23.1694445,13.6934452 23.9548494,15.6332129 C24.7402543,17.5729806 25.1329567,19.7428903 25.1329567,22.1429419 C25.1329567,23.5895484 24.9038803,25.0608129 24.4457274,26.5567355 C23.9875746,28.0526581 23.2839827,29.4335097 22.3349518,30.6992903 C21.3859208,31.965071 20.1423631,32.984271 18.6042785,33.7568903 C17.0661939,34.5295097 15.2172199,34.9158194 13.0573564,34.9158194 Z M15.1190443,29.9842065 C17.0498313,29.9842065 18.7188167,29.6554323 20.1260005,28.9978839 C21.5331843,28.3403355 22.613116,27.4197677 23.3657957,26.2361806 C24.1184754,25.0525935 24.4948152,23.6881806 24.4948152,22.1429419 C24.4948152,20.4661935 24.1102941,19.0442452 23.3412518,17.8770968 C22.5722095,16.7099484 21.4922778,15.8222581 20.1014566,15.2140258 C18.7106354,14.6057935 17.0498313,14.3016774 15.1190443,14.3016774 C12.4028523,14.3016774 10.2920767,15.0167613 8.78671728,16.446929 C7.2813579,17.8770968 6.52867821,19.7757677 6.52867821,22.1429419 C6.52867821,23.7210581 6.88865545,25.0936903 7.60860994,26.2608387 C8.32856443,27.4279871 9.33486445,28.3403355 10.62751,28.9978839 C11.9201556,29.6554323 13.4173337,29.9842065 15.1190443,29.9842065 Z M24.4948152,9.86322581 L30.87623,9.86322581 L30.87623,34.3733419 L24.9366055,34.3733419 C24.9366055,34.3733419 24.895699,34.0527871 24.813886,33.4116774 C24.732073,32.7705677 24.6584412,31.9568516 24.5929908,30.970529 C24.5275404,29.9842065 24.4948152,29.0143226 24.4948152,28.0608774 L24.4948152,9.86322581 Z" id="Shape"></path>
                <path d="M48.5478402,34.9158194 C46.0934499,34.9158194 43.8763173,34.3815613 41.8964425,33.3130452 C39.9165676,32.244529 38.3539391,30.7486065 37.208557,28.8252774 C36.0631749,26.9019484 35.4904838,24.6745032 35.4904838,22.1429419 C35.4904838,19.5456258 36.0549936,17.2935226 37.1840131,15.3866323 C38.3130326,13.4797419 39.8592985,11.9920387 41.8228108,10.9235226 C43.786323,9.85500645 46.0279995,9.32074839 48.5478402,9.32074839 C50.7404289,9.32074839 52.6057655,9.64952258 54.1438501,10.307071 C55.6819347,10.9646194 56.9254924,11.8769677 57.8745233,13.0441161 C58.8235543,14.2112645 59.5189648,15.5674581 59.9607551,17.1126968 C60.4025454,18.6579355 60.6234405,20.3346839 60.6234405,22.1429419 C60.6234405,23.5895484 60.3943641,25.0608129 59.9362112,26.5567355 C59.4780583,28.0526581 58.7744665,29.4335097 57.8254355,30.6992903 C56.8764046,31.965071 55.6328469,32.984271 54.0947623,33.7568903 C52.5566777,34.5295097 50.7077037,34.9158194 48.5478402,34.9158194 Z M50.609528,29.9842065 C52.5403151,29.9842065 54.2093005,29.6554323 55.6164843,28.9978839 C57.023668,28.3403355 58.1035998,27.4197677 58.8562795,26.2361806 C59.6089592,25.0525935 59.985299,23.6881806 59.985299,22.1429419 C59.985299,20.4661935 59.6007779,19.0442452 58.8317356,17.8770968 C58.0626933,16.7099484 56.9827615,15.8140387 55.5919404,15.1893677 C54.2011192,14.5646968 52.5403151,14.2523613 50.609528,14.2523613 C47.8933361,14.2523613 45.7825605,14.9756645 44.2772011,16.422271 C42.7718417,17.8688774 42.019162,19.7757677 42.019162,22.1429419 C42.019162,23.7210581 42.3791392,25.0936903 43.0990937,26.2608387 C43.8190482,27.4279871 44.8253482,28.3403355 46.1179938,28.9978839 C47.4106394,29.6554323 48.9078174,29.9842065 50.609528,29.9842065 Z M59.985299,0 L66.3667138,0 L66.3667138,34.3733419 L60.4270893,34.3733419 C60.3289136,33.6171613 60.230738,32.6390581 60.1325624,31.4390323 C60.0343868,30.2390065 59.985299,29.1129548 59.985299,28.0608774 L59.985299,0 Z" id="Shape"></path>
                <path d="M72.2572505,26.2361806 L78.1477872,26.2361806 C78.5077645,27.3540129 79.2522629,28.2663613 80.3812824,28.9732258 C81.510302,29.6800903 82.9911174,30.0335226 84.8237289,30.0335226 C86.0672866,30.0335226 87.0326801,29.9184516 87.7199094,29.6883097 C88.4071387,29.4581677 88.8816542,29.1211742 89.1434558,28.677329 C89.4052574,28.2334839 89.5361583,27.7321032 89.5361583,27.1731871 C89.5361583,26.4827613 89.3234444,25.9485032 88.8980168,25.5704129 C88.4725891,25.1923226 87.818085,24.8882065 86.9345045,24.6580645 C86.050924,24.4279226 84.9219045,24.2142194 83.5474459,24.0169548 C82.1729873,23.7868129 80.8476166,23.5073548 79.5713336,23.1785806 C78.2950507,22.8498065 77.1660311,22.4141806 76.184275,21.8717032 C75.2025189,21.3292258 74.4252953,20.6388 73.8526042,19.8004258 C73.2799131,18.9620516 72.9935676,17.9346323 72.9935676,16.7181677 C72.9935676,15.5345806 73.2799131,14.4825032 73.8526042,13.5619355 C74.4252953,12.6413677 75.2270628,11.8687484 76.2579067,11.2440774 C77.2887506,10.6194065 78.4995832,10.1426839 79.8904044,9.81390968 C81.2812255,9.48513548 82.7784036,9.32074839 84.3819386,9.32074839 C86.8036037,9.32074839 88.8162038,9.67418065 90.4197388,10.3810452 C92.0232738,11.0879097 93.225925,12.0742323 94.0276925,13.3400129 C94.82946,14.6057935 95.2303438,16.0606194 95.2303438,17.7044903 L89.5852461,17.7044903 C89.3234444,16.4880258 88.7998412,15.6085548 88.0144363,15.0660774 C87.2290314,14.5236 86.0181988,14.2523613 84.3819386,14.2523613 C82.7784036,14.2523613 81.5675711,14.4989419 80.749441,14.9921032 C79.9313109,15.4852645 79.5222458,16.1592516 79.5222458,17.0140645 C79.5222458,17.7044903 79.7758661,18.2387484 80.2831068,18.6168387 C80.7903475,18.994929 81.5430272,19.2990452 82.5411459,19.5291871 C83.5392646,19.759329 84.7910037,20.0059097 86.2963631,20.268929 C87.572646,20.5319484 88.7916599,20.8278452 89.9534046,21.1566194 C91.1151493,21.4853935 92.1541746,21.9045806 93.0704803,22.4141806 C93.986786,22.9237806 94.7149218,23.5977677 95.2548877,24.4361419 C95.7948535,25.2745161 96.0648365,26.3348129 96.0648365,27.6170323 C96.0648365,29.1951484 95.6148649,30.5266839 94.7149218,31.6116387 C93.8149787,32.6965935 92.5305144,33.5267484 90.861529,34.1021032 C89.1925436,34.6774581 87.1963062,34.9651355 84.8728167,34.9651355 C82.8111288,34.9651355 81.0357865,34.7432129 79.5467897,34.2993677 C78.0577929,33.8555226 76.8224165,33.2801677 75.8406604,32.5733032 C74.8589042,31.8664387 74.0980432,31.1102581 73.5580774,30.3047613 C73.0181115,29.4992645 72.649953,28.7348645 72.4536017,28.0115613 C72.2572505,27.2882581 72.1918001,26.6964645 72.2572505,26.2361806 Z" id="Path"></path>
                <path d="M99.206456,9.86322581 L118.154349,9.86322581 L118.154349,14.8441548 L99.206456,14.8441548 L99.206456,9.86322581 Z M105.489695,3.15623226 L111.87111,3.15623226 L111.87111,34.3733419 L105.489695,34.3733419 L105.489695,3.15623226 Z" id="Shape"></path>
                <path d="M149.865072,9.86322581 L137.200418,23.5237935 L128.070086,34.3733419 L120.265125,34.3733419 L133.469745,20.0223484 L142.109199,9.86322581 L149.865072,9.86322581 Z M120.265125,9.86322581 L128.070086,9.86322581 L137.298594,19.9237161 L150.552301,34.3733419 L142.74734,34.3733419 L133.273393,23.6717419 L120.265125,9.86322581 Z" id="Shape"></path>
                <path d="M152.761252,9.86322581 L171.709146,9.86322581 L171.709146,14.8441548 L152.761252,14.8441548 L152.761252,9.86322581 Z M159.044492,3.15623226 L165.425906,3.15623226 L165.425906,34.3733419 L159.044492,34.3733419 L159.044492,3.15623226 Z" id="Shape"></path>
            </g>
        </g>
    </g>
</svg>